<svg xmlns="http://www.w3.org/2000/svg" width="1440" height="900" viewBox="0 0 1440 900">
  <rect width="1440" height="900" fill="#f5f7fa"/>
  <text x="40" y="54" font-family="Microsoft YaHei, SimHei, Arial, sans-serif" font-size="28" font-weight="700" fill="#1f2937">离线控制效果分析</text>

  <rect x="32" y="82" width="1376" height="108" rx="6" fill="#ffffff" stroke="#cbd5e1"/>
  <text x="52" y="114" font-family="Microsoft YaHei, SimHei, Arial, sans-serif" font-size="18" font-weight="700" fill="#111827">文件与分析范围</text>
  <rect x="52" y="130" width="16" height="16" rx="2" fill="#2563eb"/>
  <text x="78" y="144" font-family="Microsoft YaHei, SimHei, Arial, sans-serif" font-size="13" fill="#334155">A</text>
  <rect x="100" y="124" width="340" height="26" rx="4" fill="#eef2f7" stroke="#cbd5e1"/>
  <text x="114" y="143" font-family="Microsoft YaHei, SimHei, Arial, sans-serif" font-size="13" fill="#334155">dist/logs/run-A/snapshots.jsonl</text>
  <rect x="452" y="124" width="84" height="26" rx="4" fill="#2563eb"/>
  <text x="469" y="143" font-family="Microsoft YaHei, SimHei, Arial, sans-serif" font-size="13" fill="#ffffff">选择文件</text>
  <rect x="52" y="158" width="16" height="16" rx="2" fill="#ffffff" stroke="#94a3b8"/>
  <text x="78" y="172" font-family="Microsoft YaHei, SimHei, Arial, sans-serif" font-size="13" fill="#334155">B</text>
  <rect x="100" y="152" width="340" height="26" rx="4" fill="#f8fafc" stroke="#cbd5e1"/>
  <text x="114" y="171" font-family="Microsoft YaHei, SimHei, Arial, sans-serif" font-size="13" fill="#94a3b8">未启用</text>
  <rect x="452" y="152" width="84" height="26" rx="4" fill="#eef2f7" stroke="#cbd5e1"/>
  <text x="469" y="171" font-family="Microsoft YaHei, SimHei, Arial, sans-serif" font-size="13" fill="#334155">选择文件</text>

  <text x="610" y="145" font-family="Microsoft YaHei, SimHei, Arial, sans-serif" font-size="13" fill="#334155">对象</text>
  <rect x="644" y="126" width="92" height="26" rx="4" fill="#ffffff" stroke="#cbd5e1"/>
  <text x="664" y="145" font-family="Microsoft YaHei, SimHei, Arial, sans-serif" font-size="13" fill="#334155">all</text>
  <path d="M716 136 L724 136 L720 142 Z" fill="#64748b"/>
  <text x="756" y="145" font-family="Microsoft YaHei, SimHei, Arial, sans-serif" font-size="13" fill="#334155">开始 s</text>
  <rect x="806" y="126" width="72" height="26" rx="4" fill="#ffffff" stroke="#cbd5e1"/>
  <text x="826" y="145" font-family="Microsoft YaHei, SimHei, Arial, sans-serif" font-size="13" fill="#94a3b8">0.0</text>
  <text x="900" y="145" font-family="Microsoft YaHei, SimHei, Arial, sans-serif" font-size="13" fill="#334155">结束 s</text>
  <rect x="950" y="126" width="76" height="26" rx="4" fill="#ffffff" stroke="#cbd5e1"/>
  <text x="968" y="145" font-family="Microsoft YaHei, SimHei, Arial, sans-serif" font-size="13" fill="#94a3b8">120.0</text>
  <text x="1050" y="145" font-family="Microsoft YaHei, SimHei, Arial, sans-serif" font-size="13" fill="#334155">窗口 s</text>
  <rect x="1100" y="126" width="64" height="26" rx="4" fill="#ffffff" stroke="#cbd5e1"/>
  <text x="1118" y="145" font-family="Microsoft YaHei, SimHei, Arial, sans-serif" font-size="13" fill="#94a3b8">5.0</text>

  <rect x="32" y="206" width="1376" height="322" rx="6" fill="#ffffff" stroke="#cbd5e1"/>
  <text x="52" y="240" font-family="Microsoft YaHei, SimHei, Arial, sans-serif" font-size="18" font-weight="700" fill="#111827">汇总指标</text>
  <rect x="1258" y="222" width="130" height="30" rx="4" fill="#2563eb"/>
  <text x="1282" y="242" font-family="Microsoft YaHei, SimHei, Arial, sans-serif" font-size="13" fill="#ffffff">导出全部指标</text>

  <rect x="52" y="266" width="1336" height="238" rx="4" fill="#ffffff" stroke="#e2e8f0"/>
  <line x1="52" y1="296" x2="1388" y2="296" stroke="#e2e8f0"/>
  <line x1="52" y1="330" x2="1388" y2="330" stroke="#eef2f7"/>
  <line x1="52" y1="364" x2="1388" y2="364" stroke="#eef2f7"/>
  <line x1="52" y1="398" x2="1388" y2="398" stroke="#eef2f7"/>
  <line x1="52" y1="432" x2="1388" y2="432" stroke="#eef2f7"/>
  <line x1="52" y1="466" x2="1388" y2="466" stroke="#eef2f7"/>
  <line x1="240" y1="266" x2="240" y2="504" stroke="#e2e8f0"/>
  <line x1="430" y1="266" x2="430" y2="504" stroke="#e2e8f0"/>
  <line x1="620" y1="266" x2="620" y2="504" stroke="#e2e8f0"/>
  <line x1="810" y1="266" x2="810" y2="504" stroke="#e2e8f0"/>
  <line x1="1000" y1="266" x2="1000" y2="504" stroke="#e2e8f0"/>
  <line x1="1190" y1="266" x2="1190" y2="504" stroke="#e2e8f0"/>
  <text x="72" y="286" font-family="Microsoft YaHei, SimHei, Arial, sans-serif" font-size="12" fill="#475569">通道</text>
  <text x="308" y="286" font-family="Microsoft YaHei, SimHei, Arial, sans-serif" font-size="12" fill="#475569">均值</text>
  <text x="498" y="286" font-family="Microsoft YaHei, SimHei, Arial, sans-serif" font-size="12" fill="#475569">方差</text>
  <text x="688" y="286" font-family="Microsoft YaHei, SimHei, Arial, sans-serif" font-size="12" fill="#475569">标准差</text>
  <text x="878" y="286" font-family="Microsoft YaHei, SimHei, Arial, sans-serif" font-size="12" fill="#475569">RMS</text>
  <text x="1060" y="286" font-family="Microsoft YaHei, SimHei, Arial, sans-serif" font-size="12" fill="#475569">最大绝对值</text>
  <text x="1260" y="286" font-family="Microsoft YaHei, SimHei, Arial, sans-serif" font-size="12" fill="#475569">发生时刻</text>

  <text x="72" y="318" font-family="Microsoft YaHei, SimHei, Arial, sans-serif" font-size="13" fill="#111827">前向位置误差 x</text>
  <text x="286" y="318" font-family="Microsoft YaHei, SimHei, Arial, sans-serif" font-size="13" fill="#111827">0.12 |</text>
  <text x="476" y="318" font-family="Microsoft YaHei, SimHei, Arial, sans-serif" font-size="13" fill="#111827">0.64 |</text>
  <text x="666" y="318" font-family="Microsoft YaHei, SimHei, Arial, sans-serif" font-size="13" fill="#111827">0.80 |</text>
  <text x="856" y="318" font-family="Microsoft YaHei, SimHei, Arial, sans-serif" font-size="13" fill="#111827">0.81 |</text>
  <text x="1046" y="318" font-family="Microsoft YaHei, SimHei, Arial, sans-serif" font-size="13" fill="#111827">3.20 |</text>
  <text x="1248" y="318" font-family="Microsoft YaHei, SimHei, Arial, sans-serif" font-size="13" fill="#111827">39.0 |</text>

  <text x="72" y="352" font-family="Microsoft YaHei, SimHei, Arial, sans-serif" font-size="13" fill="#111827">垂向位置误差 y</text>
  <text x="286" y="352" font-family="Microsoft YaHei, SimHei, Arial, sans-serif" font-size="13" fill="#111827">0.03 |</text>
  <text x="476" y="352" font-family="Microsoft YaHei, SimHei, Arial, sans-serif" font-size="13" fill="#111827">0.09 |</text>
  <text x="666" y="352" font-family="Microsoft YaHei, SimHei, Arial, sans-serif" font-size="13" fill="#111827">0.30 |</text>
  <text x="856" y="352" font-family="Microsoft YaHei, SimHei, Arial, sans-serif" font-size="13" fill="#111827">0.30 |</text>
  <text x="1046" y="352" font-family="Microsoft YaHei, SimHei, Arial, sans-serif" font-size="13" fill="#111827">1.10 |</text>
  <text x="1248" y="352" font-family="Microsoft YaHei, SimHei, Arial, sans-serif" font-size="13" fill="#111827">18.4 |</text>

  <text x="72" y="386" font-family="Microsoft YaHei, SimHei, Arial, sans-serif" font-size="13" fill="#111827">侧向位置误差 z</text>
  <text x="286" y="386" font-family="Microsoft YaHei, SimHei, Arial, sans-serif" font-size="13" fill="#111827">-0.18 |</text>
  <text x="476" y="386" font-family="Microsoft YaHei, SimHei, Arial, sans-serif" font-size="13" fill="#111827">1.82 |</text>
  <text x="666" y="386" font-family="Microsoft YaHei, SimHei, Arial, sans-serif" font-size="13" fill="#111827">1.35 |</text>
  <text x="856" y="386" font-family="Microsoft YaHei, SimHei, Arial, sans-serif" font-size="13" fill="#111827">1.36 |</text>
  <text x="1046" y="386" font-family="Microsoft YaHei, SimHei, Arial, sans-serif" font-size="13" fill="#111827">8.40 |</text>
  <text x="1248" y="386" font-family="Microsoft YaHei, SimHei, Arial, sans-serif" font-size="13" fill="#111827">44.2 |</text>

  <text x="72" y="420" font-family="Microsoft YaHei, SimHei, Arial, sans-serif" font-size="13" fill="#111827">前向速度误差 x</text>
  <text x="286" y="420" font-family="Microsoft YaHei, SimHei, Arial, sans-serif" font-size="13" fill="#111827">0.01 |</text>
  <text x="476" y="420" font-family="Microsoft YaHei, SimHei, Arial, sans-serif" font-size="13" fill="#111827">0.04 |</text>
  <text x="666" y="420" font-family="Microsoft YaHei, SimHei, Arial, sans-serif" font-size="13" fill="#111827">0.20 |</text>
  <text x="856" y="420" font-family="Microsoft YaHei, SimHei, Arial, sans-serif" font-size="13" fill="#111827">0.20 |</text>
  <text x="1046" y="420" font-family="Microsoft YaHei, SimHei, Arial, sans-serif" font-size="13" fill="#111827">0.90 |</text>
  <text x="1248" y="420" font-family="Microsoft YaHei, SimHei, Arial, sans-serif" font-size="13" fill="#111827">41.6 |</text>

  <text x="72" y="454" font-family="Microsoft YaHei, SimHei, Arial, sans-serif" font-size="13" fill="#111827">垂向速度误差 y</text>
  <text x="286" y="454" font-family="Microsoft YaHei, SimHei, Arial, sans-serif" font-size="13" fill="#111827">0.00 |</text>
  <text x="476" y="454" font-family="Microsoft YaHei, SimHei, Arial, sans-serif" font-size="13" fill="#111827">0.01 |</text>
  <text x="666" y="454" font-family="Microsoft YaHei, SimHei, Arial, sans-serif" font-size="13" fill="#111827">0.10 |</text>
  <text x="856" y="454" font-family="Microsoft YaHei, SimHei, Arial, sans-serif" font-size="13" fill="#111827">0.10 |</text>
  <text x="1046" y="454" font-family="Microsoft YaHei, SimHei, Arial, sans-serif" font-size="13" fill="#111827">0.40 |</text>
  <text x="1248" y="454" font-family="Microsoft YaHei, SimHei, Arial, sans-serif" font-size="13" fill="#111827">27.0 |</text>

  <text x="72" y="488" font-family="Microsoft YaHei, SimHei, Arial, sans-serif" font-size="13" fill="#111827">侧向速度误差 z</text>
  <text x="286" y="488" font-family="Microsoft YaHei, SimHei, Arial, sans-serif" font-size="13" fill="#111827">-0.02 |</text>
  <text x="476" y="488" font-family="Microsoft YaHei, SimHei, Arial, sans-serif" font-size="13" fill="#111827">0.16 |</text>
  <text x="666" y="488" font-family="Microsoft YaHei, SimHei, Arial, sans-serif" font-size="13" fill="#111827">0.40 |</text>
  <text x="856" y="488" font-family="Microsoft YaHei, SimHei, Arial, sans-serif" font-size="13" fill="#111827">0.40 |</text>
  <text x="1046" y="488" font-family="Microsoft YaHei, SimHei, Arial, sans-serif" font-size="13" fill="#111827">1.60 |</text>
  <text x="1248" y="488" font-family="Microsoft YaHei, SimHei, Arial, sans-serif" font-size="13" fill="#111827">45.0 |</text>

  <rect x="32" y="548" width="248" height="310" rx="6" fill="#ffffff" stroke="#cbd5e1"/>
  <text x="52" y="584" font-family="Microsoft YaHei, SimHei, Arial, sans-serif" font-size="18" font-weight="700" fill="#111827">绘图通道</text>
  <circle cx="60" cy="636" r="8" fill="#2563eb"/>
  <text x="80" y="641" font-family="Microsoft YaHei, SimHei, Arial, sans-serif" font-size="14" fill="#111827">前向位置误差 x</text>
  <circle cx="60" cy="670" r="8" fill="#ffffff" stroke="#94a3b8"/>
  <text x="80" y="675" font-family="Microsoft YaHei, SimHei, Arial, sans-serif" font-size="14" fill="#111827">垂向位置误差 y</text>
  <circle cx="60" cy="704" r="8" fill="#ffffff" stroke="#94a3b8"/>
  <text x="80" y="709" font-family="Microsoft YaHei, SimHei, Arial, sans-serif" font-size="14" fill="#111827">侧向位置误差 z</text>
  <circle cx="60" cy="748" r="8" fill="#ffffff" stroke="#94a3b8"/>
  <text x="80" y="753" font-family="Microsoft YaHei, SimHei, Arial, sans-serif" font-size="14" fill="#111827">前向速度误差 x</text>
  <circle cx="60" cy="782" r="8" fill="#ffffff" stroke="#94a3b8"/>
  <text x="80" y="787" font-family="Microsoft YaHei, SimHei, Arial, sans-serif" font-size="14" fill="#111827">垂向速度误差 y</text>
  <circle cx="60" cy="816" r="8" fill="#ffffff" stroke="#94a3b8"/>
  <text x="80" y="821" font-family="Microsoft YaHei, SimHei, Arial, sans-serif" font-size="14" fill="#111827">侧向速度误差 z</text>

  <rect x="300" y="548" width="1108" height="310" rx="6" fill="#ffffff" stroke="#cbd5e1"/>
  <text x="320" y="584" font-family="Microsoft YaHei, SimHei, Arial, sans-serif" font-size="18" font-weight="700" fill="#111827">滑动窗口曲线</text>
  <rect x="1362" y="560" width="26" height="26" rx="4" fill="#ffffff" stroke="#94a3b8"/>
  <rect x="1369" y="567" width="10" height="10" fill="none" stroke="#334155"/>
  <path d="M1376 564 L1384 564 L1384 572" fill="none" stroke="#334155" stroke-width="1.4"/>
  <path d="M1376 572 L1384 564" fill="none" stroke="#334155" stroke-width="1.4"/>
  <rect x="320" y="608" width="500" height="92" rx="4" fill="#f8fafc" stroke="#e2e8f0"/>
  <text x="338" y="636" font-family="Microsoft YaHei, SimHei, Arial, sans-serif" font-size="13" font-weight="700" fill="#2563eb">窗口均值</text>
  <line x1="352" y1="678" x2="790" y2="678" stroke="#94a3b8"/>
  <line x1="352" y1="648" x2="352" y2="678" stroke="#94a3b8"/>
  <polyline points="352,670 395,666 438,671 481,652 524,660 567,668 610,656 653,661 696,674 739,664 790,668" fill="none" stroke="#2563eb" stroke-width="2.5"/>

  <rect x="842" y="608" width="526" height="92" rx="4" fill="#f8fafc" stroke="#e2e8f0"/>
  <text x="860" y="636" font-family="Microsoft YaHei, SimHei, Arial, sans-serif" font-size="13" font-weight="700" fill="#f97316">窗口标准差</text>
  <line x1="874" y1="678" x2="1338" y2="678" stroke="#94a3b8"/>
  <line x1="874" y1="648" x2="874" y2="678" stroke="#94a3b8"/>
  <polyline points="874,672 918,670 962,664 1006,654 1050,658 1094,666 1138,668 1182,662 1226,660 1270,668 1338,672" fill="none" stroke="#f97316" stroke-width="2.5"/>

  <rect x="320" y="724" width="500" height="92" rx="4" fill="#f8fafc" stroke="#e2e8f0"/>
  <text x="338" y="752" font-family="Microsoft YaHei, SimHei, Arial, sans-serif" font-size="13" font-weight="700" fill="#7c3aed">窗口 RMS</text>
  <line x1="352" y1="794" x2="790" y2="794" stroke="#94a3b8"/>
  <line x1="352" y1="764" x2="352" y2="794" stroke="#94a3b8"/>
  <polyline points="352,788 395,786 438,776 481,760 524,764 567,778 610,782 653,774 696,772 739,780 790,788" fill="none" stroke="#7c3aed" stroke-width="2.5"/>

  <rect x="842" y="724" width="526" height="92" rx="4" fill="#f8fafc" stroke="#e2e8f0"/>
  <text x="860" y="752" font-family="Microsoft YaHei, SimHei, Arial, sans-serif" font-size="13" font-weight="700" fill="#dc2626">窗口最大绝对值</text>
  <line x1="874" y1="794" x2="1338" y2="794" stroke="#94a3b8"/>
  <line x1="874" y1="764" x2="874" y2="794" stroke="#94a3b8"/>
  <polyline points="874,788 918,782 962,766 1006,748 1050,744 1094,772 1138,786 1182,778 1226,762 1270,780 1338,790" fill="none" stroke="#dc2626" stroke-width="2.5"/>
</svg>
